<svg id="visual" viewBox="0 0 1920 400" width="1920" height="400" xmlns="http://www.w3.org/2000/svg" xmlns:xlink="http://www.w3.org/1999/xlink" version="1.1"><rect x="0" y="0" width="1920" height="400" fill="#0066FF"></rect><defs><linearGradient id="grad1_0" x1="79.2%" y1="100%" x2="100%" y2="0%"><stop offset="-46%" stop-color="#fbae3c" stop-opacity="1"></stop><stop offset="146%" stop-color="#fbae3c" stop-opacity="1"></stop></linearGradient></defs><defs><linearGradient id="grad1_1" x1="79.2%" y1="100%" x2="100%" y2="0%"><stop offset="-46%" stop-color="#fbae3c" stop-opacity="1"></stop><stop offset="146%" stop-color="#ff4491" stop-opacity="1"></stop></linearGradient></defs><defs><linearGradient id="grad1_2" x1="79.2%" y1="100%" x2="100%" y2="0%"><stop offset="-46%" stop-color="#0066ff" stop-opacity="1"></stop><stop offset="146%" stop-color="#ff4491" stop-opacity="1"></stop></linearGradient></defs><defs><linearGradient id="grad2_0" x1="0%" y1="100%" x2="20.8%" y2="0%"><stop offset="-46%" stop-color="#fbae3c" stop-opacity="1"></stop><stop offset="146%" stop-color="#fbae3c" stop-opacity="1"></stop></linearGradient></defs><defs><linearGradient id="grad2_1" x1="0%" y1="100%" x2="20.8%" y2="0%"><stop offset="-46%" stop-color="#ff4491" stop-opacity="1"></stop><stop offset="146%" stop-color="#fbae3c" stop-opacity="1"></stop></linearGradient></defs><defs><linearGradient id="grad2_2" x1="0%" y1="100%" x2="20.8%" y2="0%"><stop offset="-46%" stop-color="#ff4491" stop-opacity="1"></stop><stop offset="146%" stop-color="#0066ff" stop-opacity="1"></stop></linearGradient></defs><g transform="translate(1920, 400)"><path d="M-340 0C-321.6 -53.6 -303.2 -107.3 -277.1 -160C-251.1 -212.7 -217.5 -264.6 -170 -294.4C-122.5 -324.3 -61.3 -332.2 0 -340L0 0Z" fill="#d545d2"></path><path d="M-226.7 0C-214.4 -35.8 -202.1 -71.5 -184.8 -106.7C-167.4 -141.8 -145 -176.4 -113.3 -196.3C-81.7 -216.2 -40.8 -221.4 0 -226.7L0 0Z" fill="#ff7859"></path><path d="M-113.3 0C-107.2 -17.9 -101.1 -35.8 -92.4 -53.3C-83.7 -70.9 -72.5 -88.2 -56.7 -98.1C-40.8 -108.1 -20.4 -110.7 0 -113.3L0 0Z" fill="#fbae3c"></path></g><g transform="translate(0, 0)"><path d="M340 0C332.1 61.2 324.2 122.3 294.4 170C264.7 217.7 213.2 251.9 160.5 278C107.8 304.1 53.9 322 0 340L0 0Z" fill="#d545d2"></path><path d="M226.7 0C221.4 40.8 216.1 81.5 196.3 113.3C176.5 145.1 142.1 167.9 107 185.3C71.9 202.7 35.9 214.7 0 226.7L0 0Z" fill="#ff7859"></path><path d="M113.3 0C110.7 20.4 108.1 40.8 98.1 56.7C88.2 72.6 71.1 84 53.5 92.7C35.9 101.4 18 107.3 0 113.3L0 0Z" fill="#fbae3c"></path></g></svg>