<svg id="visual" viewBox="0 0 1920 400" width="1920" height="400" xmlns="http://www.w3.org/2000/svg" xmlns:xlink="http://www.w3.org/1999/xlink" version="1.1"><rect x="0" y="0" width="1920" height="400" fill="#001122"></rect><path d="M0 66L160 66C320 66 640 66 960 66C1280 66 1600 66 1760 66L1920 66L1920 0L1760 0C1600 0 1280 0 960 0C640 0 320 0 160 0L0 0Z" fill="#001122"></path><path d="M0 52L160 52C320 52 640 52 960 52C1280 52 1600 52 1760 52L1920 52L1920 0L1760 0C1600 0 1280 0 960 0C640 0 320 0 160 0L0 0Z" fill="#2d2950"></path><path d="M0 39L160 39C320 39 640 39 960 39C1280 39 1600 39 1760 39L1920 39L1920 0L1760 0C1600 0 1280 0 960 0C640 0 320 0 160 0L0 0Z" fill="#743870"></path><path d="M0 26L160 26C320 26 640 26 960 26C1280 26 1600 26 1760 26L1920 26L1920 0L1760 0C1600 0 1280 0 960 0C640 0 320 0 160 0L0 0Z" fill="#c14376"></path><path d="M0 12L160 12C320 12 640 12 960 12C1280 12 1600 12 1760 12L1920 12L1920 0L1760 0C1600 0 1280 0 960 0C640 0 320 0 160 0L0 0Z" fill="#ff6161"></path></svg>